<?xml version="1.0" encoding="utf-8"?>
<!-- Generator: Adobe Illustrator 21.0.0, SVG Export Plug-In . SVG Version: 6.00 Build 0)  -->
<svg version="1.1" id="Layer_1" xmlns="http://www.w3.org/2000/svg" xmlns:xlink="http://www.w3.org/1999/xlink" x="0px" y="0px"
	 viewBox="0 0 512 512" style="enable-background:new 0 0 512 512;" xml:space="preserve">
<g>
	<path d="M491.5,0h-471C9.2,0,0,9.2,0,20.5v471C0,502.8,9.2,512,20.5,512h471c11.3,0,20.5-9.2,20.5-20.5v-471
		C512,9.2,502.8,0,491.5,0z M471,471H353.2V313.7h66.6l10-77.2h-76.5v-49.3c0-22.4,6.2-37.6,38.3-37.6h40.9V80.4
		c-7.1-1-31.4-3.1-59.6-3.1c-59,0-99.4,36-99.4,102.1v57h-66.7v77.2h66.8V471H41V41H471V471z"/>
</g>
</svg>
