<?xml version="1.0" encoding="utf-8"?>
<!-- Generator: Adobe Illustrator 24.1.1, SVG Export Plug-In . SVG Version: 6.00 Build 0)  -->
<svg version="1.1" id="Layer_1" xmlns="http://www.w3.org/2000/svg" xmlns:xlink="http://www.w3.org/1999/xlink" x="0px" y="0px"
	 viewBox="0 0 512 512" style="enable-background:new 0 0 512 512;" xml:space="preserve">
<g>
	<path d="M369.5,1.6c26,1.2,43.9,5,60.5,11.5c16.6,6.5,29.2,14.7,41.7,27.2c12.5,12.5,20.7,25.1,27.2,41.7
		c6.5,16.6,10.3,34.6,11.5,60.5c1.5,32.2,1.6,43.6,1.6,113.5s-0.2,81.2-1.6,113.5c-1.2,26-5,43.9-11.5,60.6
		c-6.5,16.6-14.7,29.2-27.2,41.7c-12.5,12.5-25.1,20.7-41.7,27.2c-16.6,6.5-34.6,10.3-60.5,11.5c-32.2,1.5-43.6,1.6-113.5,1.6
		s-81.3-0.2-113.5-1.6c-26-1.2-43.9-5-60.6-11.5c-16.6-6.5-29.2-14.7-41.7-27.2c-12.5-12.5-20.7-25.1-27.2-41.7
		c-6.5-16.6-10.3-34.6-11.5-60.5C0.2,337.3,0,325.9,0,256s0.2-81.3,1.6-113.5c1.2-26,5-43.9,11.5-60.6c6.5-16.6,14.7-29.2,27.2-41.7
		S65.4,19.6,82,13.1c16.6-6.5,34.6-10.3,60.6-11.5C174.7,0.2,186.1,0,256,0S337.3,0.2,369.5,1.6z M256,56.9
		c-69.1,0-79.7,0.2-110.9,1.6c-19.8,0.9-31.7,3.4-42.5,7.7c-9.3,3.6-15.2,7.4-22.1,14.4c-6.9,6.9-10.8,12.8-14.4,22.1
		c-4.2,10.9-6.8,22.8-7.7,42.5c-1.4,31.2-1.6,41.7-1.6,110.9s0.2,79.7,1.6,110.9c0.9,19.8,3.4,31.6,7.7,42.5
		c3.6,9.3,7.4,15.2,14.4,22.1c6.9,6.9,12.8,10.8,22.1,14.4c10.9,4.2,22.8,6.8,42.5,7.7c31.2,1.4,41.8,1.6,110.9,1.6
		s79.7-0.2,110.9-1.6c19.8-0.9,31.6-3.4,42.5-7.7c9.3-3.6,15.2-7.4,22.1-14.4c6.9-6.9,10.8-12.8,14.4-22.1
		c4.2-10.9,6.8-22.8,7.7-42.5c1.4-31.2,1.6-41.8,1.6-110.9c0-69.1-0.2-79.7-1.6-110.9c-0.9-19.8-3.4-31.6-7.7-42.5
		c-3.6-9.3-7.4-15.2-14.4-22.1c-6.9-6.9-12.8-10.8-22.1-14.4c-10.9-4.2-22.8-6.8-42.5-7.7C335.7,57.1,325.1,56.9,256,56.9z
		 M256,388.7c-73.3,0-132.7-59.4-132.7-132.7S182.7,123.3,256,123.3S388.7,182.7,388.7,256S329.3,388.7,256,388.7z M256,331.9
		c41.9,0,75.9-34,75.9-75.9s-34-75.9-75.9-75.9s-75.9,34-75.9,75.9S214.1,331.9,256,331.9z M388.7,151.7
		c-15.7,0-28.4-12.7-28.4-28.4s12.7-28.4,28.4-28.4c15.7,0,28.4,12.7,28.4,28.4S404.4,151.7,388.7,151.7z"/>
</g>
</svg>
